# xmcd CD database file
#
# Track frame offsets:
#	150
#	28016
#	44289
#	58399
#	73520
#	105455
#	117912
#	132665
#	153958
#	167897
#	185573
#	199046
#	211330
#	228124
#	246759
#	253322
#	269625
#	287945
#	303046
#	314211
#
# Disc length: 4341 seconds
#
# Revision: 0
# Processed by: cddbd v1.5.2PL0 Copyright (c) Steve Scherf et al.
# Submitted via: CDex 1.51
#
DISCID=3510f314
DTITLE=Compilation - Summer Jazz
DYEAR=2014
DGENRE=Jazz
TTITLE0=Art Blakey - Blues march for Europe 1
TTITLE1=Gregory Porter - Liquid spirit
TTITLE2=Lalo Schifrin - Bullitt
TTITLE3=Stacey Kent - Ces petits riens
TTITLE4=Miles Davis Quintet - Round Midnight
TTITLE5=Nat King Cole - Quizas, Quizas, Quizas
TTITLE6=Django Reinhardt - Nuages
TTITLE7=Lana Del Rey - Video games
TTITLE8=Louis Armstrong and Ella Fitzgerald - Dream a little dream of me
TTITLE9=C2C - Happy
TTITLE10=Charlie Parker - Laura
TTITLE11=Thomas Dutronc - Comme un manouche sans guitare
TTITLE12=Billie Holiday - Stormy weather
TTITLE13=Jamie Cullum - Singin in the rain
TTITLE14=Martial Solal - New York Herald Tribune
TTITLE15=Nina Simone - My baby just care for me
TTITLE16=Aloe Blacc - I need a dollar
TTITLE17=Ibrahim Maalouf - Illusions
TTITLE18=Paolo Conte - Via con me
TTITLE19=Ray Charles - Hallelujah I love her so
EXTD=YEAR: 2014
EXTT0=
EXTT1=
EXTT2=
EXTT3=
EXTT4=
EXTT5=
EXTT6=
EXTT7=
EXTT8=
EXTT9=
EXTT10=
EXTT11=
EXTT12=
EXTT13=
EXTT14=
EXTT15=
EXTT16=
EXTT17=
EXTT18=
EXTT19=
PLAYORDER=
